PathFileType	4	(X/Y/Z)	Patient4_TMGait_0pt4_03_right_09.trc.trc
DataRate	CameraRate	NumFrames	NumMarkers	Units	OrigDataRate	OrigDataStartFrame	OrigNumFrames
76.086956521739	76.086956521739	5	33	mm	76.086956521739	53	       141
Frame#	Time	Sacral			L.Shoulder			Chest			R.Shoulder			Neck			R.ASIS			L.ASIS			R.Thigh.Superior			R.Thigh.Lateral			R.Thigh.Inferior			R.Patella			L.Thigh.Superior			L.Thigh.Lateral			L.Thigh.Inferior			L.Patella			L.Shank.Superior			L.Shank.Lateral			L.Shank.Inferior			R.Shank.Superior			R.Shank.Lateral			R.Shank.Inferior			R.Heel			R.Midfoot.Superior			R.Midfoot.Lateral			R.Toe			L.Heel			L.Midfoot.Lateral			L.Midfoot.Superior			L.Toe			L.Elbow			L.Wrist			R.Elbow			R.Wrist			
		X1	Y1	Z1	X2	Y2	Z2	X3	Y3	Z3	X4	Y4	Z4	X5	Y5	Z5	X6	Y6	Z6	X7	Y7	Z7	X8	Y8	Z8	X9	Y9	Z9	X10	Y10	Z10	X11	Y11	Z11	X12	Y12	Z12	X13	Y13	Z13	X14	Y14	Z14	X15	Y15	Z15	X16	Y16	Z16	X17	Y17	Z17	X18	Y18	Z18	X19	Y19	Z19	X20	Y20	Z20	X21	Y21	Z21	X22	Y22	Z22	X23	Y23	Z23	X24	Y24	Z24	X25	Y25	Z25	X26	Y26	Z26	X27	Y27	Z27	X28	Y28	Z28	X29	Y29	Z29	X30	Y30	Z30	X31	Y31	Z31	X32	Y32	Z32	X33	Y33	Z33	

53	11.453428571429	824.979142418561	1008.391239973382	530.483513605571	974.889324458916	1430.171197287060	314.649320272734	1100.536108642327	1369.694197589456	462.601166298518	1041.306102993879	1449.413055738775	643.825225731096	976.661022669510	1497.550826148149	470.381349217397	1064.829162964591	945.158947001243	621.381139835168	1020.250971856872	967.062152375362	350.688558053631	1092.937261042035	739.263200576492	590.483696931933	1010.072937338621	633.704937169748	657.378469939482	1077.538396208523	578.442071464588	571.586398420121	1072.801027703395	492.905499971266	576.551534464074	1108.645868875680	788.237558583727	369.531234919247	1060.913056262584	661.430390000412	289.926532004581	1171.706137699955	601.916201582727	337.620810281948	1186.655011620324	514.263073206769	327.701165595399	1124.322163907708	443.819806382034	324.286600512989	983.516400596010	392.063427358274	283.613981163778	984.391580913730	260.970329916000	336.428760842532	1045.153215356017	404.214067903834	585.228208746296	977.811461899098	301.300618055529	652.363475302490	1011.176762698335	206.412400969407	584.513858204428	872.563245679057	42.906322436185	565.430014406488	1046.491496005489	96.506769988861	586.488920125696	962.013874650420	36.949606412978	633.177342167685	1168.858112049608	43.102680856131	603.477996390573	802.519011444078	186.806622360793	384.925250759636	855.920072779707	141.190948291574	302.054393863577	962.190915152996	154.302800009546	316.832512604398	1041.884986712279	43.396990821415	285.660422224890	883.416864803324	1086.993604916085	215.863926811258	947.339637847170	831.900550595378	190.916940936891	1143.663520160275	1143.430857364829	804.806776641262	1381.075774785422	1172.659976619330	725.961659809478	
54	11.466571428571	823.607307206917	1009.515681010587	532.500382240676	973.768099892603	1430.714498351864	316.267354291391	1100.552293210352	1369.505219870573	462.940522939344	1043.505171162559	1449.498625054504	644.706962529225	977.171873360608	1497.910224920035	471.880021956003	1063.671459477451	944.924092854034	621.787391950277	1017.656148032197	967.942117231984	351.408697872003	1089.951533774887	738.725177738654	590.511189246965	1006.509237786578	633.695967541930	657.715546409809	1073.088358696906	578.027746045222	571.645629191900	1067.891216887223	492.756767434470	576.525003544982	1107.198959928432	791.123438670094	370.286333954106	1060.794936491195	663.790667535941	290.570782571394	1172.387417062715	605.625907736679	337.892306817284	1188.891745887674	518.793368898597	327.900917787298	1129.195904238145	447.087633866383	324.183096026641	990.939998761005	389.449297921169	283.668528794789	998.244581415406	258.266351686004	335.380550802086	1040.122639894941	404.120580941004	585.244096474734	972.862599734012	301.266670156767	652.433658101526	1006.007444184826	206.381071254156	584.526228714557	867.302887074472	42.899055398194	565.508783675659	1041.174237753475	96.485446371225	586.528582725335	956.703304660540	36.919856909964	633.203926091912	1163.526230521130	43.115577099534	603.552889224440	820.882728404117	174.318125996474	384.132526326870	875.925899305111	133.085971431442	300.244510781346	981.148478933829	151.525321359778	314.774685081178	1066.155799156518	45.880909942826	281.341019571932	878.136502647743	1088.176895554123	219.315154614001	935.915585274407	831.578624705098	195.365665669898	1152.359303927168	1144.969330313398	802.980772111411	1387.183875992346	1182.085481895345	720.462764765270	
55	11.479714285714	822.272395468656	1010.638333976622	534.363565573865	972.783336400701	1431.176956731520	317.723780711368	1100.642856002158	1369.246610764914	463.161297746516	1045.725149966342	1449.546899496261	645.413687574398	977.736739394257	1498.204788305576	473.177281333735	1062.511505057355	944.595319731261	622.043053796895	1015.107935090635	968.783631459485	351.983887174827	1086.922529623339	738.150348768568	590.332043922562	1003.014497880050	633.665001962562	657.967007256645	1068.644548863496	577.600897759700	571.578059295358	1063.023203029970	492.578500336712	576.434942614618	1105.319535018305	793.426673534734	370.851779700756	1059.845756165172	665.647353627298	291.186353066195	1171.917672687817	608.494133318812	338.393931639319	1189.835210982156	522.756174432185	328.349050857763	1133.161372798712	449.960283399806	324.153900504531	998.245687443416	385.679831116637	283.491095616964	1012.829820256312	254.721127533681	334.007750599279	1035.120889847063	404.004666065894	585.211083001826	967.948918227037	301.215773376463	652.476723017200	1000.836934202927	206.326013494824	584.504663491728	862.034158277972	42.886403290214	565.570615819782	1035.851274829953	96.460657612608	586.548956204975	951.390957408671	36.888176445572	633.217844970710	1158.195792890424	43.118724688333	603.610459691525	841.048202813833	160.033689062423	382.726839767276	897.817691683395	123.647688656587	297.899035162001	1001.591151603448	148.013319434681	312.300654574373	1092.340624443034	48.637138913482	276.732640880679	872.986770792780	1089.381884928447	222.527807951305	924.895412043015	831.489788768454	199.624803262123	1160.625908271048	1146.393036925136	800.811396492243	1392.709124593418	1190.719534841116	714.753397090408	
56	11.492857142857	820.982667110859	1011.709096127876	536.068175940961	971.934801626379	1431.526876118438	319.005936574909	1100.796615623867	1368.886791722994	463.263454986534	1047.932493328261	1449.514218315234	645.948050374021	978.349403678959	1498.401308711297	474.277921678104	1061.362568300855	944.170760246864	622.151601310392	1012.627608002917	969.510940568079	352.408922982634	1083.894342948522	737.542518813227	589.971335929779	999.657399893036	633.600805577083	658.161115261331	1064.276429692528	577.157933409012	571.407288609672	1058.261049133909	492.357387816125	576.313929760882	1103.041778604886	795.070300085506	371.282094414280	1058.168289985166	666.946041247343	291.756041509046	1170.361341413464	610.440772565911	339.207410123081	1189.570057923016	526.069654922471	329.091319535762	1136.237944518664	452.411958147704	324.234191567974	1005.476512886782	380.977258061795	283.061135565284	1027.950347500999	250.653711524900	332.374134466945	1030.211963006877	403.856144427113	585.157288580990	963.112975552256	301.138768678132	652.519255592141	995.689929187397	206.238508511590	584.463420471360	856.755281385820	42.870256192815	565.618761015074	1030.526808803930	96.431266763031	586.557264140243	946.079651181513	36.854787168173	633.225689161746	1152.870365945327	43.108523554434	603.654359745913	862.786638173261	144.698496181070	380.701120344661	921.302700231696	113.477481578289	295.085905448002	1023.180029289193	144.153499371146	309.534437295316	1119.840995330276	51.825569593707	272.109783592259	868.003357148691	1090.559884933007	225.494161853697	914.334006241056	831.574067738628	203.659959626742	1168.444603790988	1147.650978874331	798.351475795478	1397.703936833271	1198.490329250521	708.882965552455	
57	11.506000000000	819.743958072920	1012.685850697339	537.605254865771	971.220375298083	1431.744606130707	320.099264707926	1100.999882629308	1368.405259716253	463.245517790848	1050.090661084412	1449.367309693413	646.310837949134	978.999833946221	1498.477329896089	475.183504079786	1060.235494846856	943.657056445415	622.120366776990	1010.237558089774	970.062391042343	352.682656583657	1080.914689810084	736.907199253842	589.465267047568	996.494064082881	633.494439594239	658.318969074065	1060.050624300886	576.695732885613	571.156786384806	1053.664858149946	492.083741702491	576.186657618511	1100.402517042227	796.010107264900	371.631550923484	1055.870914074889	667.674001362816	292.252451212266	1167.806044063930	611.442981647746	340.373197970566	1188.210790577994	528.698924119657	330.139651234990	1138.463927220841	454.445054152549	324.445886702630	1012.649557855565	375.604945271425	282.374363301494	1043.357495287938	246.398435420963	330.572118154482	1025.454006777835	403.667460042638	585.102682929396	958.392202730784	301.030838558102	652.580953101496	990.589664495513	206.112416460039	584.413581242557	851.466327222850	42.853423229744	565.656889376588	1025.204356290143	96.396518487308	586.560423017019	940.771432201349	36.820176195034	633.232633875649	1147.552640450847	43.081972571796	603.688626333197	885.748516607886	129.062944617506	378.106849061792	945.994633053770	103.168826196469	291.927256048542	1045.509481232763	140.334236009327	306.639022850660	1148.022329948157	55.603912495198	267.783729151101	863.225045648284	1091.670023096138	228.208906944653	904.276556873800	831.774925580963	207.439740889646	1175.793217745020	1148.699365472562	795.646705110880	1402.221111539477	1205.329817928927	702.902102490480	
